<svg xmlns="http://www.w3.org/2000/svg" pointer-events="none" class="leaflet-zoom-animated" width="1452" height="847" style="transform: translate3d(-121px, -71px, 0px) scale(1);" viewBox="-121 -71 1452 847"><g><path class="leaflet-interactive" stroke="#201920" stroke-opacity="1" stroke-width="2" stroke-linecap="round" stroke-linejoin="round" fill="none" d="M362 310L362 306L361 307L359 303L363 301L362 298L365 295L366 296L369 293L371 293L371 291L374 292L376 290L377 293L383 293L388 285L393 286L396 283L397 284L397 282L403 280L406 277L413 275L413 268L416 265L415 264L418 263L418 259L415 252L415 246L411 244L411 242L424 238L432 240L433 239L430 236L430 234L436 216L443 219L452 220L456 218L458 216L456 205L460 201L462 202L465 200L467 196L466 195L468 193L474 193L476 200L481 202L483 206L489 206L490 209L493 208L493 210L496 212L498 219L500 219L501 222L501 225L499 227L500 230L498 233L499 240L500 239L503 241L504 240L510 242L520 242L531 250L536 250L535 253L537 253L538 258L544 267L550 266L569 269L585 269L592 274L593 273L598 276L608 277L609 279L613 280L616 277L633 270L643 271L654 268L662 260L666 259L669 256L665 250L666 245L669 241L682 245L686 243L691 237L698 237L704 232L703 231L708 226L712 226L713 223L717 224L719 222L724 221L726 223L733 222L732 217L722 207L717 206L713 210L704 208L701 211L698 208L698 206L700 204L707 184L715 188L722 183L728 181L729 178L727 178L727 176L732 169L734 161L737 158L739 158L740 155L739 150L737 148L734 149L734 147L742 139L743 140L759 136L763 136L767 139L768 138L770 141L773 142L779 142L779 145L781 145L782 149L785 151L784 154L786 155L785 156L788 161L787 162L789 163L789 169L792 172L793 179L795 179L794 184L797 188L804 187L804 189L810 189L810 191L812 191L816 196L820 196L818 199L821 203L819 205L823 211L834 210L839 205L841 206L848 202L855 202L852 203L851 208L853 210L847 216L848 217L845 224L846 227L839 240L836 241L829 238L827 240L828 241L822 243L825 253L825 259L823 265L818 267L819 270L816 267L816 265L813 264L812 269L810 271L809 270L806 275L798 275L801 280L799 282L792 281L790 279L791 278L789 278L790 277L787 278L782 287L775 290L769 295M402 377L399 374L399 372L402 369L404 373L406 371L406 367L401 361L401 357L404 354L398 350L396 342L391 343L384 340L384 338L381 339L379 336L380 333L377 330L375 330L375 328L367 326L369 324L371 325M628 467L626 467L627 464L625 464L627 460L625 458L620 459L616 455L614 455L612 459L607 459L604 462L602 460L600 460L597 463L594 460L592 460L591 463L586 462L586 474L582 473L582 469L574 471L574 469L572 469L571 466L567 466L567 460L569 458L564 456L564 452L562 450L564 448L558 448L554 450L553 449L555 447L553 445L555 441L554 440L562 432L561 431L563 427L563 419L560 416L560 418L558 416L558 412L554 410L554 408L552 410L553 411L551 411L552 414L549 416L542 411L538 411L535 412L535 414L532 416L527 417L521 423L517 424L509 424L509 418L505 418L504 413L499 414L490 411L486 415L484 420L482 418L483 413L481 412L479 414L474 415L470 415L465 412L463 414L461 412L461 414L457 410L454 411L453 407L450 408L445 403L445 401L441 403L436 398L434 398L434 396L433 397L432 395L430 395L429 392L424 391L422 395L408 385L405 386L402 383L402 377M637 471L632 470L628 467M640 600L639 591M648 516L651 520L652 525M656 549L654 557M668 621L676 618M698 590L703 584M722 560L725 551M726 518L726 527M734 493L729 501M749 469L743 477M754 454L756 444"/><path class="leaflet-interactive" stroke="#201920" stroke-opacity="1" stroke-width="2" stroke-linecap="butt" stroke-linejoin="round" stroke-dasharray="4,4" stroke-dashoffset="4" fill="none" d="M371 325L373 323L371 321L371 313L369 311L366 310L364 312L362 310"/><path class="leaflet-interactive" stroke="gray" stroke-opacity="1" stroke-width="1" stroke-linecap="round" stroke-linejoin="round" stroke-dasharray="8,4,4,4" fill="none" d="M682 465L682 465M687 462L685 462L684 465L689 465L689 463L687 462"/><path class="leaflet-interactive" stroke="#4190da" stroke-opacity="1" stroke-width="1" stroke-linecap="round" stroke-linejoin="round" fill="none" d="M686 464L686 462L684 463L683 460L682 465L680 467L679 466L679 468L676 467L674 469L671 468L669 470L659 472L655 475L655 477L658 480L656 482L652 482L650 476L652 472L650 470L648 472L646 472L646 470L637 471M656 474L656 474M656 474L656 476L656 474M682 465L682 465M686 464L686 464M686 464L686 464M686 464L686 464M733 425L730 426L732 426L733 429L730 430L731 433L729 435L733 435L731 437L728 436L728 438L726 438L727 439L726 440L726 438L724 442L723 441L724 442L722 445L719 444L719 446L713 453L709 453L705 459L699 459L697 461L695 459L692 462L690 460L690 462L689 463L689 461L687 463L689 463L686 464M733 425L733 425M748 403L746 407L747 410L744 413L743 412L742 415L741 414L733 427L732 426L734 424L733 425M746 329L744 331L740 331L741 334L740 333L739 336L736 337L736 335L736 337L727 348L737 356L741 366L741 370L746 374L745 375L749 377L749 379L744 377L742 379L744 381M744 381L750 386L749 387L751 389L747 387L742 390L745 391L749 396L751 396L748 398L750 399L749 403M746 329L746 329M746 329L746 329M752 303L749 307L745 309L742 308L747 305L747 303L746 304L743 301L745 301L745 299L752 292L751 289L750 290L748 288L743 287L738 292L738 294L731 297L728 300L728 302L722 306L722 308L719 307L719 305L717 305L715 309L715 313L717 313L717 315L724 316L727 319L728 318L728 320L725 321L725 323L728 326L732 326L732 324L736 321L735 320L739 319L745 321L745 323L751 322L755 324L752 329L746 329M746 329L746 329M748 403L748 403M748 403L748 403M748 403L748 403M749 403L748 403M749 403L749 403M751 395L751 395M751 395L751 395M751 395L751 395M752 395L751 395M751 395L749 393L751 393L752 395M752 395L752 395M752 393L753 392L752 393M752 393L752 393M752 303L752 303M769 295L767 299L761 299L752 303M753 388L753 388M753 388L753 388M755 387L755 387M644 470L644 470M646 475L646 475M649 485L649 485M649 589L650 587L653 588L652 587L649 589M650 500L642 496L642 490L647 485L659 482L662 486L659 489L657 495L651 498L650 500M653 585L654 584L653 585M656 478L656 478M657 474L657 474M657 585L657 585M657 583L658 582L657 583M658 475L658 473L658 475M658 481L658 481M658 583L658 583M658 476L658 476M663 519L663 519M665 509L666 508L665 509M665 579L665 579M665 514L665 514M665 573L665 573M666 587L666 587M666 585L666 585M666 514L666 514M666 513L666 513M666 584L667 585L666 584M666 516L666 516M666 578L667 579L666 578M666 513L666 513M667 586L667 586M667 513L667 513M667 516L668 515L667 516M667 514L668 513L667 514M667 517L667 517M669 583L669 583M669 515L669 515M669 617L669 617M671 577L671 577M671 577L671 577M671 617L671 617M671 511L671 511M671 520L671 520M671 509L672 510L671 509M671 576L672 577L671 576M671 616L671 616M672 576L672 576M672 603L672 603M672 510L672 510M672 511L672 511M673 515L672 516L673 515M673 470L673 470M673 602L673 602M673 518L674 517L673 518M673 514L674 513L673 514M673 571L673 571M673 603L674 602L673 603M673 601L674 602L673 601M674 577L674 577M674 600L674 600M674 607L674 607M674 470L674 470M674 603L674 603M674 605L674 605M674 514L675 515L674 514M674 607L674 607M675 469L674 470L675 469M675 515L675 515M675 512L675 512M676 470L675 469L676 470M676 576L676 576M676 470L676 470M676 511L676 511M676 585L676 585M676 571L676 571M676 571L676 571M677 608L677 608M677 580L677 580M677 488L677 488M677 570L677 570M677 468L677 468M678 467L678 467M678 468L678 468M679 467L679 467M679 597L679 597M679 583L679 583M679 583L680 582L679 583M682 465L682 465M682 565L682 565M682 592L682 592M682 576L683 575L682 576M683 574L683 574M683 467L683 467M683 521L683 521M683 467L683 467M683 467L683 467M683 467L683 467M683 587L684 586L683 587M684 589L684 589M684 463L684 463M684 466L684 466M684 491L684 491M684 465L686 465L684 465M684 567L684 567M684 522L684 522M684 520L685 521L684 520M684 584L685 583L684 584M684 587L689 584L690 585L688 587L684 587M685 576L684 577L685 576M685 519L685 519M685 577L685 577M685 576L686 577L685 576M685 523L685 523M686 567L686 567M686 560L686 560M686 583L686 583M686 518L686 518M686 465L686 465M687 467L687 467M687 572L687 572M687 464L687 464M687 467L687 467M687 577L687 577M687 517L687 517M687 466L687 466M687 522L687 522M687 565L687 565M687 569L687 569M687 465L687 465M687 521L688 522L687 521M688 570L688 570M688 556L688 556M688 462L688 462M688 559L688 559M688 464L688 464M688 566L688 566M688 561L688 561M688 555L688 555M689 517L689 517M689 568L689 568M689 521L689 521M689 569L689 569M689 560L689 560M689 561L689 561M689 568L689 568M689 583L690 582L689 583M690 568L690 568M690 568L690 568M690 556L690 556M690 568L690 568M690 577L691 576L690 577M690 521L690 521M690 568L691 567L690 568M690 556L691 555L690 556M690 463L690 463M691 587L691 587M691 582L691 582M691 564L691 564M691 555L691 555M691 559L692 558L691 559M691 516L691 516M691 569L691 569M692 582L692 582M692 558L692 558M692 519L692 519M692 561L692 561M692 590L692 590M692 584L692 584M693 560L693 560M693 517L693 517M693 588L693 588M693 558L693 558M695 580L696 581L695 580M695 579L696 580L695 579M696 566L696 566M696 535L696 535M697 572L697 572M697 568L697 568M697 580L698 579L697 580M699 563L699 563M699 563L699 563M699 563L699 563M699 564L700 563L699 564M700 563L700 563M700 570L701 569L700 570M700 560L700 560M701 475L701 475M701 474L702 475L701 474M701 573L701 573M702 567L702 567M703 571L703 571M704 576L704 576M705 569L705 569M705 574L705 574M705 569L705 569M705 564L707 564L705 564M706 569L706 569M707 563L707 563M707 515L707 515M707 555L708 556L707 555M707 478L707 478M707 575L707 575M708 477L708 479L708 477M708 563L708 563M711 454L709 454L711 454M711 562L711 562M711 561L711 561M712 565L712 565M712 562L713 561L712 562M712 558L712 558M712 567L712 567M713 559L713 559M715 562L715 562M715 559L715 559M715 525L716 524L715 525M716 561L716 561M718 445L718 445M719 445L718 444L719 445M719 446L720 445L719 446M721 445L720 446L721 445M723 306L723 306M724 305L724 305M724 305L725 306L724 305M729 456L729 456M729 439L730 438L729 439M730 455L730 455M730 452L730 452M730 452L730 452M730 435L730 435M731 430L731 430M731 453L730 454L731 453M731 434L731 434M731 435L731 435M731 426L732 425L731 426M731 437L731 437M731 437L731 437M732 426L732 426M733 435L733 435M733 430L733 430M733 432L733 432M734 454L734 454M734 429L733 430L734 429M734 427L734 427M735 427L735 427M735 426L735 426M735 424L735 424M735 340L735 340M736 423L736 423M736 464L736 464M736 423L736 423M737 320L737 320M738 428L738 428M739 318L738 317L739 318M739 467L735 460L734 453L740 443L745 438L747 438L749 440L749 445L745 457L741 462L741 468L739 467M739 317L739 317M739 318L739 318M740 316L740 316M740 291L740 291M740 314L740 314M741 313L741 313M741 314L741 314M742 333L742 333M742 414L742 414M742 418L742 418M742 414L743 413L742 414M743 414L744 413L743 414M745 378L750 381L749 382L743 378L745 378M745 371L745 371M745 461L745 461M746 466L746 466M747 467L747 467M747 381L747 381M747 403L747 403M748 407L748 407M748 383L746 382L748 383M748 382L750 383L748 382M748 394L748 394M748 406L748 406M748 407L749 406L748 407M749 409L749 409M749 394L748 395L749 394M749 383L749 383M749 409L749 409M749 436L749 436M749 442L749 442M749 394L749 394M749 384L750 383L749 384M749 392L749 392M750 403L750 403M750 397L750 397M750 395L750 395M750 393L750 393M750 389L750 389M750 395L750 395M750 395L750 395M751 395L751 395M751 395L751 395M751 393L751 393M751 392L752 393L751 392M751 393L751 393M751 400L751 400M751 398L750 397L751 398M751 398L751 398M751 395L752 396L751 395M752 396L752 396M752 396L752 396M752 398L751 397L752 398M752 396L753 395L753 397L752 396M753 305L753 305M753 395L753 395M753 391L753 391M754 391L754 391M754 305L754 305M754 304L754 304M754 389L754 389M755 305L756 304L755 305M756 394L756 394M756 307L755 306L756 307M756 388L756 388M756 388L756 388M758 301L757 302L758 301M758 302L758 302M759 307L759 307M760 434L762 434L760 434M762 433L762 433M763 432L764 433L763 432M763 435L763 435M763 434L763 434M763 435L763 435M763 299L763 299M770 432L769 433L770 432"/><path class="leaflet-interactive" stroke="#747569" stroke-opacity="0.6" stroke-width="1" stroke-linecap="round" stroke-linejoin="round" fill="none" d="M490 336L481 333L471 333L463 335L460 340L452 340L445 344L436 343L435 340L431 340L431 342L429 342L427 345L415 343L415 345L413 347L412 346L411 351L409 353L408 352L404 354M554 371L552 371L552 373L549 376L547 376L546 379L543 377L542 380L540 378L537 379L535 377L536 374L535 375L533 373L535 373L533 373L530 370L524 372L519 371L517 369L510 369L505 366L499 366L495 364L489 356L491 356L491 348L489 348L488 345L491 339L487 337L490 336M512 307L505 308L503 310L497 310L496 312L493 313L494 315L496 315L496 320L498 320L503 327L501 327L498 330L498 332L501 333L499 337L493 335L491 337L490 336M587 361L586 362L585 360L583 360L579 356L579 354L580 353L589 356L589 354L591 354L588 351L588 349L592 345L591 344L595 342L594 339L596 339L597 337L595 331L592 328L594 326L588 320L587 321L583 319L574 312L574 314L572 314L564 306L559 307L557 309L552 305L548 305L549 310L546 313L546 315L544 314L542 316L538 313L529 314L527 309L523 310L523 308L518 308L517 305L512 307M544 267L540 270L542 273L540 277L535 279L532 278L524 285L522 289L516 290L514 300L511 304L512 307M607 323L600 319L600 313L604 311L607 306L605 304L606 303L603 302L597 306L593 304L587 306L589 308L587 310L580 307L579 303L569 298L575 290L574 287L566 287L566 289L565 288L562 290L562 288L559 290L559 287L556 285L554 281L555 279L550 266M566 402L564 388L561 383L564 382L560 378L558 372L554 371M587 361L586 366L582 364L583 369L577 371L575 369L574 370L572 366L571 369L564 366L560 356L556 355L554 356L554 358L552 358L552 360L555 363L552 366L553 367L551 367L554 371M558 412L558 410L562 412L562 404L564 406L564 402L566 402M615 416L614 413L610 415L608 413L608 407L604 407L604 410L600 412L601 415L596 420L597 427L594 430L594 428L587 431L587 429L585 429L585 425L579 417L580 416L578 414L576 416L573 413L573 408L570 406L568 408L568 412L566 410L566 402M617 367L616 370L610 370L607 367L608 364L606 360L599 359L596 354L590 358L593 361L588 366L587 361M634 319L631 316L625 314L629 307L627 303L623 304L623 306L622 305L620 309L620 317L618 320L607 323M607 323L609 323L616 330L615 331L617 335L617 340L619 340L619 342L621 342L624 345L624 341L629 338L629 336L625 334L625 328L627 326L631 326M615 416L615 418L611 420L607 420L604 418L602 422L603 427L609 425L610 426L607 435L610 438L612 438L609 443M609 443L609 445L613 445L615 449L620 448L622 450L621 454L620 453L617 456M649 431L648 434L645 433L644 434L646 434L646 436L643 435L642 438L638 436L639 437L635 439L632 438L631 435L621 443L614 440L610 444L609 443M624 409L622 407L618 409L618 411L619 410L623 412L624 414L622 416L615 416M631 326L631 328L638 332L639 331L642 334L642 343L640 345L635 344L635 348L625 346L626 349L624 351L627 354L625 354L626 361L620 361L619 364L621 365L618 368L617 367M641 374L635 374L634 372L632 372L633 371L631 372L629 370L630 369L623 370L621 368L618 369L617 367M647 409L646 412L644 412L640 404L636 404L634 402L632 402L632 406L629 405L627 409L625 409L625 407L624 409M624 409L623 405L619 405L619 403L615 399L619 395L617 393L621 391L623 393L626 392L626 394L629 395L632 392L632 388L637 387L637 383L641 380L639 376L641 374M631 326L631 322L634 319M662 303L662 301L659 304L656 304L654 302L655 303L653 305L652 304L653 305L646 312L646 317L644 317L642 321L634 319M641 374L650 379M650 379L655 384L655 386L649 390L640 390L640 392L642 393L640 397L642 397L645 400L644 401L646 400L647 403M647 403L647 409M685 404L683 404L682 397L678 400L677 397L672 400L668 396L664 396L662 394L658 394L658 398L651 397L651 399L650 398L647 403M649 431L649 429L647 429L649 421L644 422L644 420L646 420L645 419L649 417L647 409M669 443L668 442L665 444L665 440L661 440L665 433L663 433L662 428L658 428L655 432L653 430L651 432L649 431M661 364L659 366L657 364L649 364L651 368L652 367L655 370L651 370L649 372L650 379M651 471L651 472M651 471L655 467L656 468L656 466L659 465L659 463L662 460L664 460L664 454L670 446L669 443M652 483L653 483M654 483L656 482M656 351L655 348L658 341L656 327L660 321L657 318L657 316L660 313L661 308L663 306L662 303M656 351L661 364M656 351L666 349L669 346L670 347L670 345L676 345L682 341L683 334M657 482L658 481M696 382L694 380L691 381L690 378L685 379L683 375L684 374L682 372L680 374L678 372L671 373L667 371L661 364M661 365L661 365M686 289L686 291L676 293L676 295L673 293L668 301L665 300L665 302L662 303M669 443L671 439L675 439L675 441L677 441L678 438L676 438L678 436L682 438L685 436M697 336L694 335L693 337L683 334M683 334L681 330L683 330L683 328L684 329L683 326L686 323L686 319L684 315L682 315L682 311L684 309L683 307L688 306L690 302L689 299L685 297L685 295L686 296L686 294L689 293L686 289M703 397L701 398L697 396L697 398L695 398L692 401L688 401L685 404M685 436L685 432L687 430L685 430L686 427L684 425L684 420L682 418L682 416L687 411L687 407L685 404M685 436L685 438L691 438L691 440L689 440L687 444L689 445L696 442L700 444L699 443L701 441M727 283L720 282L720 274L719 275L717 273L718 272L716 268L710 270L706 276L705 275L702 278L700 276L696 278L696 280L692 280L693 276L689 274L687 280L684 281L686 289M703 351L703 353L706 354L707 357L704 360L700 356L698 358L699 361L697 361L696 364L692 366L695 369L695 371L701 371L701 377L698 378L696 382M703 397L700 391L700 387L702 385L696 382M717 314L712 319L708 319L705 322L704 321L703 324L701 324L701 326L696 331L697 336M703 351L697 351L697 349L695 349L695 347L694 348L692 346L700 338L702 338L702 336L696 340L697 336M701 441L700 438L707 427L706 424L710 422L711 419L709 417L712 416L712 414L715 415L721 411M711 453L708 444L706 444L704 442L705 441L701 441M719 401L719 399L715 399L712 396L710 396L711 397L708 399L707 398L709 396L707 394L703 397M704 351L703 351M728 347L724 347L724 349L721 350L720 353L717 350L715 352L712 351L712 353L708 347L705 348L704 351M731 384L730 385L728 383L724 383L723 382L725 380L723 380L723 378L722 379L720 377L722 375L721 374L723 374L722 371L726 371L727 368L724 367L724 369L720 369L720 367L717 364L719 360L715 360L716 359L713 356L704 351M713 294L711 292L714 289L710 289L706 285L704 287L705 288L699 291L701 293L697 297L697 299L700 302L704 302L706 300L708 301M715 311L712 312L707 309L709 305L708 301M709 300L708 301M709 300L711 300L711 296M711 296L708 297L709 300M711 453L712 454M713 294L711 296M712 455L713 455M713 294L716 297L714 297L714 299L718 305M719 401L725 395L724 394L729 391L727 389L730 388L731 384M719 401L718 404L721 407L721 411M737 421L736 418L732 420L730 416L727 419L724 418L724 411L721 411M727 283L729 281L729 271L734 276L734 278L740 272L741 273L744 270L748 270L750 267L758 267L761 264L763 264L763 260M732 297L732 294L729 291L727 291L727 289L724 288L727 283M741 385L738 388L731 384M739 422L740 422M740 313L742 313M749 380L744 377L743 383L741 385M744 389L741 385M745 389L746 389M761 219L761 221L760 220L758 222L753 215L754 212L768 200L770 206L772 194L776 192L775 184L782 169L776 161L773 163L773 165L758 166L755 157L756 154L752 150L749 153L747 153L747 151L744 149L748 143L746 139M746 389L747 388M748 388L749 388M750 387L751 387M753 387L754 387M755 386L756 386M825 259L820 259L816 253L814 255L814 253L811 255L810 254L808 258L806 258L802 252L801 247L798 250L799 251L796 252L793 246L790 247L791 242L789 240L781 240L779 236L770 237L766 233L766 227L759 228M759 228L758 224L763 222L763 220L762 221L761 219M759 228L756 230L756 234L753 231L750 232L748 230L747 233L750 235L752 239L750 242L752 250L757 249L759 247L762 256L762 258L760 258L763 260M761 219L761 219M761 219L761 219M761 219L761 219M763 260L764 259L769 264L769 266L772 263L773 264L775 272L777 274L778 273L776 275L776 279L778 279L777 280L780 283L778 287L780 287M620 343L621 342L620 343M649 425L650 424L649 425M677 397L677 397"/><path class="leaflet-interactive" stroke="#3388ff" stroke-opacity="0" stroke-width="3" stroke-linecap="round" stroke-linejoin="round" fill="#3388ff" fill-opacity="0" fill-rule="evenodd" d="M712 290L714 290L709 289L707 285L702 290L699 291L701 293L700 295L697 296L697 299L700 302L704 302L706 300L707 301L709 299L708 296L713 295L711 293L712 290z"/><path class="leaflet-interactive" stroke="#3388ff" stroke-opacity="0" stroke-width="3" stroke-linecap="round" stroke-linejoin="round" fill="#3388ff" fill-opacity="0" fill-rule="evenodd" d="M716 303L717 302L714 299L714 297L716 297L713 294L711 296L711 300L708 301L709 305L707 309L715 311L717 307L716 306L718 304L715 303zM716 303L716 303z"/><path class="leaflet-interactive" stroke="#3388ff" stroke-opacity="0" stroke-width="3" stroke-linecap="round" stroke-linejoin="round" fill="#3388ff" fill-opacity="0" fill-rule="evenodd" d="M713 290L711 292L716 297L714 297L714 299L721 308L728 302L728 299L732 297L730 291L728 291L725 288L725 286L728 283L720 282L720 274L719 275L717 273L718 272L716 268L710 270L707 276L701 276L696 278L696 280L693 279L693 276L691 274L689 274L687 280L684 281L684 285L688 293L690 293L685 296L689 298L689 304L685 306L682 311L682 315L685 317L686 320L683 326L684 327L681 331L684 334L693 337L695 335L696 336L696 332L700 328L701 324L704 322L705 323L708 319L712 319L717 314L714 311L710 311L707 309L709 305L707 300L705 302L699 302L697 300L697 297L701 293L699 291L702 290L707 285L709 289L713 290zM711 296L708 297L709 300L711 300L711 296zM716 303L715 303zM724 305L724 306z"/><path class="leaflet-interactive" stroke="#3388ff" stroke-opacity="0" stroke-width="3" stroke-linecap="round" stroke-linejoin="round" fill="#3388ff" fill-opacity="0" fill-rule="evenodd" d="M656 351L666 349L669 346L670 347L670 345L676 345L682 341L683 334L681 330L684 328L683 327L686 322L685 317L682 314L684 310L683 307L688 306L690 302L689 299L685 296L690 293L688 293L687 289L682 293L679 292L676 293L675 295L673 293L668 301L666 300L663 303L660 313L657 316L657 318L660 321L656 327L658 339L655 348L656 351z"/><path class="leaflet-interactive" stroke="#3388ff" stroke-opacity="0" stroke-width="3" stroke-linecap="round" stroke-linejoin="round" fill="#fff" fill-opacity="0" fill-rule="evenodd" d="M550 266L555 279L553 281L559 287L559 290L563 290L565 288L566 289L566 287L573 287L575 290L574 294L569 298L579 303L579 307L582 307L585 310L587 310L589 308L587 306L592 304L596 306L600 303L605 302L607 306L604 311L600 313L600 319L608 323L617 320L620 317L620 309L622 305L623 306L623 304L626 303L629 306L629 308L625 314L628 316L632 316L632 318L637 319L637 321L642 321L643 318L646 317L645 314L653 305L652 304L653 305L655 303L654 302L656 304L658 304L661 301L663 303L666 300L667 301L673 293L675 295L679 292L682 293L686 291L684 281L687 280L689 274L691 274L693 276L692 279L695 280L700 276L702 278L705 275L706 276L709 274L709 270L713 270L716 268L718 272L717 273L719 275L720 274L720 282L727 283L729 281L729 275L727 273L729 271L734 276L734 278L740 272L741 273L744 270L748 270L754 266L757 267L763 263L763 261L760 258L762 258L762 256L759 247L752 251L750 244L752 240L747 233L748 230L750 232L753 231L756 234L756 230L759 228L758 224L763 222L762 219L760 219L761 220L759 222L757 221L757 219L753 215L754 212L762 207L768 200L770 206L772 194L776 192L775 184L782 169L776 161L773 163L773 165L758 165L755 158L756 153L754 153L751 150L748 153L744 149L748 143L747 140L742 139L734 147L734 149L739 149L740 156L733 163L734 164L729 171L730 172L727 178L729 178L728 181L715 188L707 184L700 200L700 204L698 205L698 208L701 211L704 208L713 211L717 206L722 207L732 217L733 222L731 224L726 223L724 221L716 224L714 223L712 226L708 226L703 232L704 233L699 237L691 237L686 243L682 245L676 244L673 241L668 241L665 249L669 257L661 261L656 267L644 271L633 270L624 273L613 280L610 279L609 277L598 276L594 273L592 274L585 269L564 269L551 267z"/><path class="leaflet-interactive" stroke="#3388ff" stroke-opacity="0" stroke-width="3" stroke-linecap="round" stroke-linejoin="round" fill="#3388ff" fill-opacity="0" fill-rule="evenodd" d="M762 299L766 299L773 291L774 292L780 287L780 283L777 280L778 279L776 279L776 275L778 273L777 274L775 272L775 268L772 263L769 266L769 263L764 259L762 264L759 265L760 266L753 266L753 268L751 267L748 270L744 270L734 278L734 276L729 271L727 273L729 275L729 280L725 285L725 288L728 291L730 291L732 297L738 294L738 292L743 287L748 287L752 291L749 294L750 295L745 299L746 300L743 302L747 304L747 306L746 305L746 307L745 306L743 310L748 307L749 308L748 307L754 302L762 299zM755 304L755 304zM752 305L752 305zM755 304L756 305L755 304zM756 307L755 306L756 307zM758 301L757 302L758 301zM754 304L754 305zM740 291L740 291zM758 302L758 302zM759 307L759 307zM763 299L764 299z"/><path class="leaflet-interactive" stroke="#3388ff" stroke-opacity="0" stroke-width="3" stroke-linecap="round" stroke-linejoin="round" fill="#fff" fill-opacity="0" fill-rule="evenodd" d="M811 271L813 264L815 264L819 270L819 268L817 267L821 266L824 263L825 260L817 257L817 253L815 255L813 253L809 255L808 258L806 258L802 252L801 247L798 250L799 251L796 252L793 246L790 247L791 242L789 240L781 240L779 236L775 238L773 236L770 237L766 233L766 229L764 227L760 227L756 230L756 234L753 231L750 232L748 230L747 233L750 235L752 240L750 242L752 250L754 251L759 247L762 256L762 258L760 258L762 260L764 259L767 262L768 261L768 264L770 266L772 263L773 264L775 272L777 274L778 273L776 275L776 279L778 279L777 280L780 283L780 287L783 286L789 277L793 281L800 282L798 275L806 275L809 270L811 271z"/><path class="leaflet-interactive" stroke="#3388ff" stroke-opacity="0" stroke-width="3" stroke-linecap="round" stroke-linejoin="round" fill="#3388ff" fill-opacity="0" fill-rule="evenodd" d="M762 228L766 228L766 232L770 237L773 236L775 238L779 236L781 240L789 240L791 242L790 247L793 246L797 252L799 252L798 249L801 247L802 252L806 258L808 258L808 256L813 253L815 255L817 253L817 257L823 260L824 253L822 244L829 239L838 242L839 241L839 237L846 226L845 225L848 217L847 216L852 211L852 203L855 201L839 205L836 208L835 207L836 208L834 210L823 211L819 206L821 204L818 199L820 196L816 196L809 189L806 190L803 187L797 188L795 186L795 179L793 179L792 172L789 169L790 166L788 166L789 163L787 162L788 161L785 157L786 156L782 148L783 147L779 145L780 144L778 142L772 142L762 136L747 138L746 139L748 143L743 149L746 150L747 153L749 153L752 150L756 154L755 157L758 166L773 165L775 161L782 168L780 176L775 183L776 191L772 193L770 206L768 200L757 211L754 212L753 215L758 222L760 220L761 221L761 219L762 221L763 220L763 222L758 223L759 227L762 228z"/><path class="leaflet-interactive" stroke="#3388ff" stroke-opacity="0" stroke-width="3" stroke-linecap="round" stroke-linejoin="round" fill="#3388ff" fill-opacity="0" fill-rule="evenodd" d="M741 385L745 389L750 386L745 381L743 381L741 385zM749 380L744 377L743 378L746 381L750 381zM748 383L746 381L748 383zM748 382L751 383L748 382zM747 381L746 381zM749 384L749 383zM749 383L749 383z"/><path class="leaflet-interactive" stroke="#3388ff" stroke-opacity="0" stroke-width="3" stroke-linecap="round" stroke-linejoin="round" fill="#fff" fill-opacity="0" fill-rule="evenodd" d="M712 352L711 353L708 348L704 350L711 356L714 356L716 360L718 360L717 365L719 365L721 369L725 367L727 369L726 372L722 370L723 373L720 377L722 379L723 378L723 380L725 380L723 383L729 383L728 384L732 384L738 388L745 380L743 379L744 377L749 380L749 377L741 369L737 356L729 350L727 346L724 347L721 353L719 353L717 350L715 352L712 352z"/><path class="leaflet-interactive" stroke="#3388ff" stroke-opacity="0" stroke-width="3" stroke-linecap="round" stroke-linejoin="round" fill="#3388ff" fill-opacity="0" fill-rule="evenodd" d="M721 411L724 412L724 418L727 419L731 416L732 419L736 418L738 421L739 417L743 415L742 412L743 413L747 411L747 403L750 402L748 398L751 396L747 395L742 390L744 388L741 385L738 388L732 384L730 388L727 389L729 391L726 392L724 394L725 395L718 402L718 404L721 407L721 410zM751 395L752 396L752 394L750 393L751 395zM751 393L751 394zM752 398L752 398zM753 388L753 388zM751 392L752 393L751 392zM752 393L752 392zM750 403L750 402zM753 396L753 396zM753 391L753 391zM748 406L749 406zM752 396L752 397zM748 403L748 403zM743 417L743 417zM749 388L750 389L749 388zM749 409L749 409zM751 398L750 397L751 398zM753 395L753 396zM754 389L754 389zM749 409L749 409zM750 393L750 393zM753 395L753 395zM748 395L749 394L748 395zM742 418L742 418zM749 402L750 403L749 402zM750 397L750 398zM749 394L749 394zM749 392L749 392zM751 395L751 395zM752 398L752 397zM743 415L743 415zM756 394L756 394zM752 392L752 392zM752 396L752 396zM756 388L756 388zM742 414L743 413L742 414zM743 414L744 413L743 414zM753 395L753 395zM756 388L756 388zM751 395L752 395zM750 395L750 395zM742 414L742 413zM753 396L753 396zM751 395L751 395z"/><path class="leaflet-interactive" stroke="#3388ff" stroke-opacity="0" stroke-width="3" stroke-linecap="round" stroke-linejoin="round" fill="#3388ff" fill-opacity="0" fill-rule="evenodd" d="M706 357L707 358L703 360L699 356L699 361L697 361L696 364L692 366L695 369L695 371L701 371L701 378L699 378L696 381L700 385L702 385L699 389L703 397L706 396L706 394L709 396L707 398L708 399L711 396L713 396L714 399L721 400L725 395L724 394L729 391L727 389L729 389L731 385L728 384L729 383L723 383L725 381L721 377L723 373L722 370L726 372L727 369L725 367L721 369L719 365L717 365L719 360L715 360L716 358L714 356L710 356L705 351L703 352L704 354L706 354L706 357zM724 381L725 381zM707 398L707 398zM697 372L697 372z"/><path class="leaflet-interactive" stroke="#3388ff" stroke-opacity="0" stroke-width="3" stroke-linecap="round" stroke-linejoin="round" fill="#3388ff" fill-opacity="0" fill-rule="evenodd" d="M726 441L725 438L727 440L726 439L729 438L727 438L727 436L733 436L729 434L731 434L731 430L733 428L731 426L733 426L733 424L734 425L732 427L735 426L734 425L737 422L737 420L732 420L730 416L728 419L725 418L723 410L720 411L720 413L716 415L713 414L710 417L711 419L706 424L707 427L705 431L702 433L700 441L704 441L706 443L705 444L708 443L709 450L712 453L719 447L718 444L722 445L724 443L723 442L726 441zM721 445L720 446L721 445zM729 439L730 438L729 439zM730 435L730 435zM733 430L733 429zM719 446L719 445zM733 425L733 425zM719 445L718 444L719 445zM733 430L733 430zM731 430L730 430zM734 427L734 427zM731 435L731 434zM732 426L732 426zM735 426L735 426zM736 423L736 423zM735 424L735 424zM731 426L732 425L731 426z"/><path class="leaflet-interactive" stroke="#3388ff" stroke-opacity="0" stroke-width="3" stroke-linecap="round" stroke-linejoin="round" fill="#3388ff" fill-opacity="0" fill-rule="evenodd" d="M719 401L718 399L714 399L713 396L711 396L708 399L707 398L709 396L707 394L701 398L697 396L697 398L695 398L692 401L688 401L685 404L687 406L687 411L683 415L682 419L684 419L683 422L686 427L685 429L687 429L685 437L691 438L687 443L689 445L696 442L699 444L700 443L702 434L707 427L706 424L711 420L710 417L713 414L716 415L721 412L721 408L718 404L719 401z"/><path class="leaflet-interactive" stroke="#3388ff" stroke-opacity="0" stroke-width="3" stroke-linecap="round" stroke-linejoin="round" fill="#3388ff" fill-opacity="0" fill-rule="evenodd" d="M704 351L705 348L708 347L711 352L715 352L717 350L720 353L722 350L724 350L723 349L725 347L729 346L729 344L736 337L736 335L736 337L739 336L740 333L741 334L740 331L741 332L749 328L752 329L755 323L745 323L745 321L739 319L735 320L736 321L732 324L732 326L728 326L725 322L728 321L728 319L725 316L722 317L717 314L712 319L708 319L705 322L704 321L704 323L703 322L704 323L701 324L701 326L696 331L696 340L702 336L702 338L700 338L692 346L699 352L704 351zM739 318L740 318zM739 317L739 317zM742 333L741 333zM740 316L740 315zM741 314L741 313zM735 340L735 339zM739 318L738 317zM740 314L740 314zM746 321L746 321zM746 321L746 321zM746 321L746 321zM697 338L697 338z"/><path class="leaflet-interactive" stroke="#3388ff" stroke-opacity="0" stroke-width="3" stroke-linecap="round" stroke-linejoin="round" fill="#3388ff" fill-opacity="0" fill-rule="evenodd" d="M675 373L678 372L681 374L683 372L685 379L690 379L691 381L694 380L696 382L697 379L701 378L701 372L697 372L695 368L692 367L696 365L699 356L703 360L707 358L703 351L697 351L697 349L695 349L694 347L693 348L692 345L702 337L697 338L696 340L697 337L695 335L693 337L684 334L682 341L677 345L670 344L669 347L656 352L663 368L670 373L674 373zM683 373L683 374z"/><path class="leaflet-interactive" stroke="#3388ff" stroke-opacity="0" stroke-width="3" stroke-linecap="round" stroke-linejoin="round" fill="#3388ff" fill-opacity="0" fill-rule="evenodd" d="M662 365L649 365L652 368L654 368L653 371L650 370L649 374L650 379L654 382L655 386L648 390L640 390L642 393L640 397L642 397L645 400L644 401L646 400L647 403L648 400L650 398L651 399L651 397L658 398L658 394L668 396L671 399L675 399L677 397L678 400L682 396L682 402L684 404L687 401L693 401L692 400L698 396L701 398L702 397L702 393L700 391L700 387L702 385L698 384L694 380L691 381L690 378L685 379L683 373L670 373L667 370L666 371L662 365zM646 390L646 390zM662 365L662 365zM675 373L675 373zM676 397L677 397z"/><path class="leaflet-interactive" stroke="#3388ff" stroke-opacity="0" stroke-width="3" stroke-linecap="round" stroke-linejoin="round" fill="#3388ff" fill-opacity="0" fill-rule="evenodd" d="M669 443L671 439L675 439L675 441L677 441L676 438L678 436L682 438L685 435L685 431L687 430L685 430L686 427L684 425L684 419L682 419L682 417L683 414L686 413L685 412L687 410L687 406L684 403L683 404L682 397L678 400L677 397L675 399L671 399L668 396L657 394L657 398L649 398L647 402L647 413L649 417L647 419L646 418L646 420L643 422L648 421L650 423L650 425L648 425L647 428L652 433L652 430L656 432L658 429L664 429L663 432L665 432L661 441L665 439L665 443L669 442zM649 425L649 425z"/><path class="leaflet-interactive" stroke="#3388ff" stroke-opacity="0" stroke-width="3" stroke-linecap="round" stroke-linejoin="round" fill="#3388ff" fill-opacity="0" fill-rule="evenodd" d="M682 465L683 461L689 463L690 460L692 462L695 459L697 461L699 459L705 459L708 456L708 454L711 453L708 443L705 444L706 443L704 441L700 441L700 444L698 444L697 442L689 445L687 443L691 439L690 437L685 438L685 436L679 436L677 438L676 437L678 439L676 441L674 439L670 440L671 441L669 443L669 449L664 454L665 457L662 461L659 462L658 465L656 465L655 468L654 467L652 470L651 469L652 472L650 476L652 482L656 482L658 480L655 477L657 473L669 470L671 468L679 468L682 465zM710 454L710 454zM676 469L675 470L676 469zM673 470L674 470zM687 466L687 466zM657 474L658 475L658 473L657 474zM673 470L673 469zM657 475L655 475L658 475zM683 467L683 467zM683 467L683 467zM678 468L678 468zM684 463L684 463zM687 467L687 467zM687 467L686 467zM708 477L709 478L707 479L709 479L708 477zM677 468L677 468zM656 478L656 478zM658 476L658 476zM658 481L658 481zM701 474L702 475L701 474zM701 475L701 475zM700 460L700 460zM700 460L700 460z"/><path class="leaflet-interactive" stroke="#3388ff" stroke-opacity="0" stroke-width="3" stroke-linecap="round" stroke-linejoin="round" fill="#3388ff" fill-opacity="0" fill-rule="evenodd" d="M649 431L648 434L645 433L644 434L646 434L644 436L643 435L642 438L641 436L639 436L638 439L636 439L630 435L628 439L621 443L614 440L611 444L609 444L616 449L621 448L623 450L622 453L620 453L617 456L620 459L625 458L627 460L625 464L627 465L626 467L637 471L642 469L645 470L645 472L647 472L650 470L651 471L651 469L652 470L655 467L656 468L656 466L659 465L659 463L665 458L665 452L669 450L668 448L670 446L668 442L665 444L664 439L662 441L661 440L665 433L663 433L663 429L658 429L655 432L653 430L652 433L649 431zM614 441L614 441zM646 475L646 475z"/><path class="leaflet-interactive" stroke="#3388ff" stroke-opacity="0" stroke-width="3" stroke-linecap="round" stroke-linejoin="round" fill="#3388ff" fill-opacity="0" fill-rule="evenodd" d="M654 484L647 485L642 490L642 496L644 498L650 500L658 494L658 491L662 487L659 483L654 483zM671 617L671 617zM679 583L680 582zM669 617L669 617zM665 509L666 508L665 509zM715 525L715 524zM671 616L671 616zM667 516L668 516zM666 516L667 516zM684 587L688 587L690 585L689 584L685 587zM685 576L686 577L685 576zM685 577L685 577zM669 515L669 515zM667 514L668 513L667 514zM671 577L671 577zM684 589L684 589zM687 577L687 577zM671 509L672 510L671 509zM691 564L691 564zM700 570L700 569zM690 568L691 567zM683 587L684 586zM649 589L651 587L653 588L649 588zM704 576L704 576zM673 518L674 517L673 518zM674 577L674 577zM689 560L690 560zM673 515L673 515zM705 564L706 564zM672 510L672 510zM665 514L666 514zM697 568L698 568zM691 582L691 582zM689 583L690 582zM695 580L696 581L695 580zM684 584L685 583zM697 572L697 572zM705 574L705 574zM682 576L683 575L682 576zM691 559L692 558L691 559zM690 556L690 555zM693 560L693 560zM666 514L666 514zM685 576L685 577zM653 585L653 584zM707 555L708 556L707 555zM667 513L667 513zM673 514L674 513L673 514zM667 517L668 517zM684 567L684 566zM692 582L692 582zM706 569L706 570zM696 566L696 566zM708 563L708 563zM691 516L691 516zM701 573L701 573zM683 574L683 574zM691 587L691 587zM689 561L690 561zM716 561L716 561zM687 565L687 565zM691 555L691 555zM707 563L707 563zM657 583L658 582L657 583zM665 579L665 579zM695 579L696 579zM679 583L679 583zM686 560L686 560zM712 565L712 564zM687 517L687 517zM658 583L658 583zM697 580L698 579zM666 587L666 587zM666 578L667 578zM657 585L657 585zM672 576L672 576zM705 569L705 569zM669 583L669 583zM689 521L689 521zM693 558L694 558zM686 518L686 518zM702 567L702 566zM712 562L712 561zM692 590L692 590zM676 576L676 576zM667 586L667 586zM671 577L671 577zM673 601L674 601zM690 577L690 576zM692 584L692 583zM677 580L677 580zM682 592L682 592zM707 515L707 515zM712 567L712 566zM677 488L677 488zM689 517L689 517zM684 491L684 491zM674 607L675 607zM666 584L666 584zM671 576L672 576zM676 585L677 585zM674 603L674 603zM673 603L673 602zM696 535L696 535zM682 565L682 565zM684 522L684 522zM677 608L677 608zM674 607L674 607zM672 603L672 603zM671 511L671 511zM671 520L671 520zM674 605L674 605zM673 602L673 602zM679 597L679 597zM703 571L703 571zM693 588L693 587zM666 585L666 585zM685 519L685 519zM693 517L693 518zM707 575L707 575zM674 514L675 514zM663 485L663 485zM699 564L700 564zM711 561L711 562zM675 515L675 515zM700 563L700 563zM673 571L674 571zM690 521L690 521zM712 558L712 559zM715 559L715 559zM687 572L687 572zM691 569L691 570zM674 600L674 600z"/><path class="leaflet-interactive" stroke="#3388ff" stroke-opacity="0" stroke-width="3" stroke-linecap="round" stroke-linejoin="round" fill="#3388ff" fill-opacity="0" fill-rule="evenodd" d="M624 409L625 406L626 409L630 405L631 406L633 402L635 402L636 405L640 403L640 407L642 407L642 409L645 412L648 408L648 404L646 400L644 400L644 398L640 397L642 393L640 391L642 391L643 389L646 390L654 387L655 384L653 381L651 379L647 379L645 376L641 374L641 376L639 376L641 380L637 384L638 383L636 388L632 388L633 389L629 395L627 395L626 392L623 393L619 391L619 393L617 393L619 395L616 401L619 402L619 404L621 404L624 408zM646 389L646 390zM618 394L618 394zM646 390L646 390zM629 395L629 395z"/><path class="leaflet-interactive" stroke="#3388ff" stroke-opacity="0" stroke-width="3" stroke-linecap="round" stroke-linejoin="round" fill="#3388ff" fill-opacity="0" fill-rule="evenodd" d="M582 421L587 431L596 428L596 420L601 415L601 411L602 412L604 410L603 409L607 407L607 411L609 411L607 413L609 415L615 413L616 416L623 416L623 412L619 410L618 411L618 409L621 406L624 409L623 405L619 405L619 403L615 399L619 396L618 393L617 394L620 391L623 393L626 392L626 394L629 395L633 388L637 387L637 383L641 380L639 376L641 376L641 374L637 374L634 372L633 373L633 371L630 372L629 369L622 370L622 368L620 368L618 370L617 367L616 370L610 370L607 367L608 364L606 360L599 359L596 354L591 357L593 361L588 366L587 361L586 366L582 364L583 369L577 371L575 369L574 370L572 366L571 369L564 366L560 356L554 356L552 360L555 363L552 365L553 366L551 368L559 374L563 382L561 384L564 388L566 409L568 412L568 408L570 406L574 410L573 413L576 416L578 414L582 421zM623 393L623 393zM629 394L629 394zM617 393L617 393z"/><path class="leaflet-interactive" stroke="#3388ff" stroke-opacity="0" stroke-width="3" stroke-linecap="round" stroke-linejoin="round" fill="#3388ff" fill-opacity="0" fill-rule="evenodd" d="M647 409L646 412L644 412L643 409L642 410L642 408L640 407L640 403L636 405L636 403L633 402L632 405L630 405L626 409L625 406L624 409L621 406L618 409L618 411L619 410L623 412L623 415L617 415L614 419L611 420L608 418L606 420L604 418L602 422L603 427L610 426L607 435L610 438L612 438L609 442L611 444L615 440L621 444L623 442L622 441L628 439L630 435L632 436L632 438L637 439L639 437L638 436L642 437L642 435L644 436L646 434L644 434L645 433L648 434L649 429L647 429L647 425L649 425L649 421L644 422L646 420L645 419L649 417L647 409zM649 424L649 424zM649 425L650 425z"/><path class="leaflet-interactive" stroke="#3388ff" stroke-opacity="0" stroke-width="3" stroke-linecap="round" stroke-linejoin="round" fill="#3388ff" fill-opacity="0" fill-rule="evenodd" d="M615 416L613 412L612 414L609 415L607 413L609 411L607 411L608 408L604 408L604 410L602 412L601 411L600 416L596 420L597 427L594 430L594 428L588 431L581 421L579 417L580 416L578 414L576 416L573 413L574 410L570 406L568 408L568 412L566 410L566 402L564 402L564 406L562 404L561 407L563 410L561 412L559 410L558 411L559 418L562 417L563 420L563 430L561 430L562 432L554 440L555 441L553 445L555 447L553 449L554 450L558 448L564 448L562 450L564 453L563 454L565 457L569 457L566 465L571 466L575 471L579 471L581 469L583 471L582 472L586 474L587 469L585 464L587 462L590 463L593 460L597 463L600 460L604 462L607 459L608 461L612 459L611 458L614 455L617 456L620 453L622 453L623 450L621 448L616 449L613 445L609 445L611 440L611 438L608 435L610 426L608 425L604 427L602 424L604 418L606 420L608 418L612 420L615 417z"/><path class="leaflet-interactive" stroke="#3388ff" stroke-opacity="0" stroke-width="3" stroke-linecap="round" stroke-linejoin="round" fill="#3388ff" fill-opacity="0" fill-rule="evenodd" d="M490 336L481 333L471 333L463 335L460 340L459 339L457 341L454 339L445 344L436 343L435 340L431 340L431 342L429 342L427 345L415 343L415 345L413 347L412 346L411 351L409 353L405 353L401 357L401 361L406 368L405 373L403 373L402 370L399 371L399 375L402 377L402 383L405 386L408 385L413 390L414 389L418 391L422 395L424 391L429 392L441 403L443 401L446 402L445 403L450 408L453 407L455 411L458 410L460 414L462 412L462 414L466 412L469 415L477 415L479 413L483 413L482 418L484 420L491 411L499 413L501 415L503 413L505 417L509 419L510 424L521 423L527 417L532 416L535 414L535 412L538 411L542 411L549 415L552 413L551 412L553 408L558 412L558 410L562 412L562 404L564 406L564 402L566 402L564 393L565 392L563 385L561 383L564 382L560 378L558 372L551 371L552 374L551 373L550 376L546 376L547 379L543 377L542 380L540 378L537 379L535 377L536 374L533 374L534 373L529 370L521 372L516 369L510 369L505 366L499 366L495 364L489 357L491 355L491 348L489 348L488 345L491 339L487 337L490 336z"/><path class="leaflet-interactive" stroke="#3388ff" stroke-opacity="0" stroke-width="3" stroke-linecap="round" stroke-linejoin="round" fill="#3388ff" fill-opacity="0" fill-rule="evenodd" d="M656 351L655 348L658 341L656 327L660 321L657 315L661 311L661 307L663 304L662 301L658 304L654 302L655 303L653 305L652 304L653 305L646 312L646 317L644 317L642 321L638 321L635 318L631 322L631 328L638 332L639 331L642 334L642 344L635 344L635 348L625 346L626 349L624 351L627 354L625 354L626 356L624 358L626 361L620 361L619 364L621 365L619 368L617 368L621 368L623 370L629 369L630 372L633 371L633 373L634 372L637 375L640 374L650 379L649 372L651 370L655 370L652 367L651 368L651 366L649 365L658 364L659 366L661 364L656 351zM661 362L661 362zM622 369L622 369z"/><path class="leaflet-interactive" stroke="#3388ff" stroke-opacity="0" stroke-width="3" stroke-linecap="round" stroke-linejoin="round" fill="#3388ff" fill-opacity="0" fill-rule="evenodd" d="M625 340L624 345L620 343L621 342L619 342L616 339L616 329L609 323L604 322L602 319L600 319L600 313L604 311L607 306L605 302L600 303L597 306L592 304L589 305L589 308L587 310L580 307L579 303L577 303L571 298L568 298L573 294L575 290L574 287L566 287L566 289L565 288L562 290L562 288L559 290L559 287L556 285L554 281L554 275L550 266L542 268L540 270L542 273L541 276L535 279L532 278L524 285L522 289L516 290L514 300L511 304L512 307L514 305L518 305L518 308L522 308L524 310L527 309L529 313L538 313L542 316L544 314L546 315L546 313L549 310L549 305L558 309L559 306L561 308L563 306L566 307L565 308L572 314L574 315L574 312L577 315L578 314L582 319L590 321L597 337L588 349L588 351L591 354L587 356L580 353L579 354L582 360L587 362L588 361L588 365L591 364L590 363L592 363L593 361L590 357L592 357L595 354L598 356L599 359L606 360L608 364L607 367L610 370L616 370L617 367L620 367L620 361L626 361L625 354L627 354L624 351L626 349L625 346L634 348L636 347L634 345L635 344L641 345L641 339L643 337L642 333L633 329L630 326L626 326L626 330L624 332L625 335L629 337L628 340L626 340zM621 342L622 342zM595 334L596 334zM622 343L622 343zM625 340L625 340z"/><path class="leaflet-interactive" stroke="#3388ff" stroke-opacity="0" stroke-width="3" stroke-linecap="round" stroke-linejoin="round" fill="#3388ff" fill-opacity="0" fill-rule="evenodd" d="M595 334L595 330L589 320L588 321L586 319L582 319L580 315L579 316L574 312L574 314L572 314L564 306L562 306L561 308L559 306L557 309L552 305L548 305L549 310L546 313L546 315L544 314L542 316L538 313L529 314L527 309L524 310L522 308L518 308L518 306L515 305L503 310L498 310L493 313L494 315L497 314L496 320L503 326L498 329L498 331L501 332L501 335L499 337L493 335L491 337L487 337L491 339L488 344L488 346L491 349L491 355L489 357L495 364L499 366L502 365L510 369L519 370L521 372L529 370L536 375L535 377L537 379L540 378L542 380L543 377L547 379L546 376L547 377L550 376L551 373L552 374L551 371L553 371L552 366L554 363L552 359L555 355L560 357L563 364L567 368L570 369L572 367L574 369L573 370L576 369L578 371L583 369L582 364L585 364L586 366L587 362L583 360L579 355L581 353L586 356L591 354L588 351L588 349L592 345L591 344L595 342L594 340L597 337L596 334z"/><path class="leaflet-interactive" stroke="#3388ff" stroke-opacity="0" stroke-width="3" stroke-linecap="round" stroke-linejoin="round" fill="#3388ff" fill-opacity="0" fill-rule="evenodd" d="M631 326L631 322L634 319L631 316L625 314L629 307L627 303L623 304L623 306L622 305L620 309L620 317L618 320L607 323L609 323L616 330L615 331L617 335L617 340L619 340L619 342L621 342L624 345L624 340L628 340L629 337L625 334L625 328L627 326L631 326zM621 342L621 343zM622 343L622 343z"/><path class="leaflet-interactive" stroke="#3388ff" stroke-opacity="0" stroke-width="3" stroke-linecap="round" stroke-linejoin="round" fill="#fff" fill-opacity="0" fill-rule="evenodd" d="M544 267L540 262L537 253L535 253L536 250L532 250L520 242L510 242L504 240L503 241L501 239L500 240L498 235L501 230L499 227L501 223L500 219L498 219L494 210L488 206L485 207L481 205L481 203L476 199L477 198L474 197L474 192L472 194L467 193L467 197L462 202L460 201L456 205L458 214L456 218L452 220L443 219L436 216L430 234L430 236L433 238L432 240L427 239L426 237L424 239L417 241L416 240L411 243L415 246L415 252L418 259L418 262L415 264L416 265L413 268L414 273L409 277L397 282L396 284L394 284L394 286L387 286L382 293L379 292L377 294L377 290L373 292L370 291L371 293L369 293L366 296L365 295L362 298L363 301L360 302L361 307L362 306L361 309L364 312L365 310L370 312L372 320L371 321L373 323L371 325L367 325L378 330L380 332L379 337L382 339L383 338L391 343L396 342L396 346L398 348L397 350L403 354L411 352L412 347L415 345L415 343L427 345L432 340L434 340L437 343L442 344L454 339L456 341L459 340L464 335L468 335L471 333L481 333L491 337L493 335L499 337L501 333L498 330L503 326L497 320L497 314L494 315L493 312L511 307L516 290L522 289L526 283L532 278L534 278L535 280L537 277L539 277L542 273L540 270L542 268z"/><path class="leaflet-interactive" stroke="#3388ff" stroke-opacity="0" stroke-width="3" stroke-linecap="round" stroke-linejoin="round" fill="#3388ff" fill-opacity="0" fill-rule="evenodd" d="M737 463L740 468L741 462L745 457L749 445L749 439L743 439L738 445L736 451L734 452L736 462zM770 432L770 432zM761 434L762 433L761 434zM731 453L730 454zM763 432L763 432zM730 452L729 453L730 452zM730 455L730 455zM730 452L730 452zM750 435L750 435zM745 461L746 461zM746 466L746 466zM750 436L751 436zM729 456L729 456zM736 464L737 464z"/><path class="leaflet-interactive" stroke="#3388ff" stroke-opacity="0" stroke-width="3" stroke-linecap="round" stroke-linejoin="round" fill="#3388ff" fill-opacity="0" fill-rule="evenodd" d="M686 462L686 464L684 464L685 465L689 463L686 462zM686 465L687 465zM688 463L688 463zM688 463L688 463zM688 463L688 463zM688 464L688 464zM688 463L688 463zM688 464L688 464zM688 464L688 464z"/><path class="leaflet-interactive" stroke="#3388ff" stroke-opacity="0" stroke-width="3" stroke-linecap="round" stroke-linejoin="round" fill="#3388ff" fill-opacity="0" fill-rule="evenodd" d="M682 466L682 465zM682 465L682 465z"/><path class="leaflet-interactive" stroke="#3388ff" stroke-opacity="0" stroke-width="3" stroke-linecap="round" stroke-linejoin="round" fill="#3388ff" fill-opacity="0" fill-rule="evenodd" d="M754 454L756 444L754 454zM743 477L749 469L743 477zM729 501L734 492L729 501zM726 526L726 517L726 526zM723 558L722 560L725 551L724 554zM698 591L703 584L698 591zM672 620L668 621L676 618L673 619zM639 599L640 600L639 592L639 599zM654 556L656 553L656 549L655 555zM652 524L648 516L651 522z"/></g></svg>